HIERARCHY
ROOT Hips
{
	OFFSET 0.00 0.00 0.00
	CHANNELS 6 Xposition Yposition Zposition Xrotation Yrotation Zrotation
	JOINT LeftUpLeg
	{
		OFFSET 3.34807 0.00000 0.00000
		CHANNELS 3 Xrotation Yrotation Zrotation
		JOINT LeftLeg
		{
			OFFSET 0.00000 -16.98552 0.00000
			CHANNELS 3 Xrotation Yrotation Zrotation
			JOINT LeftFoot
			{
				OFFSET 0.00000 -16.83686 0.00000
				CHANNELS 3 Xrotation Yrotation Zrotation
				JOINT LeftToeBase
				{
					OFFSET 0.00000 -1.59599 5.95633
					CHANNELS 3 Xrotation Yrotation Zrotation
					End Site
					{
						OFFSET 0.00000 0.00000 2.95275
					}
				}
			}
		}
	}
	JOINT RightUpLeg
	{
		OFFSET -3.34807 0.00000 0.00000
		CHANNELS 3 Xrotation Yrotation Zrotation
		JOINT RightLeg
		{
			OFFSET 0.00000 -16.98552 0.00000
			CHANNELS 3 Xrotation Yrotation Zrotation
			JOINT RightFoot
			{
				OFFSET 0.00000 -16.83686 0.00000
				CHANNELS 3 Xrotation Yrotation Zrotation
				JOINT RightToeBase
				{
					OFFSET 0.00000 -1.59599 5.95633
					CHANNELS 3 Xrotation Yrotation Zrotation
					End Site
					{
						OFFSET 0.00000 0.00000 2.95275
					}
				}
			}
		}
	}
	JOINT Spine
	{
		OFFSET 0.00000 0.03937 0.00000
		CHANNELS 3 Xrotation Yrotation Zrotation
		JOINT Spine1
		{
			OFFSET 0.00000 7.93124 0.00000
			CHANNELS 3 Xrotation Yrotation Zrotation
			JOINT Neck
			{
				OFFSET 0.00000 8.48368 0.00000
				CHANNELS 3 Xrotation Yrotation Zrotation
				JOINT Head
				{
					OFFSET 0.00000 6.65077 0.00000
					CHANNELS 3 Xrotation Yrotation Zrotation
					End Site
					{
						OFFSET 0.00000 4.52755 0.00000
					}
				}
			}
			JOINT LeftShoulder
			{
				OFFSET 0.00000 8.48368 0.00000
				CHANNELS 3 Xrotation Yrotation Zrotation
				JOINT LeftArm
				{
					OFFSET 7.74502 -0.00003 0.00000
					CHANNELS 3 Xrotation Yrotation Zrotation
					JOINT LeftForeArm
					{
						OFFSET 12.49824 -0.00005 0.00000
						CHANNELS 3 Xrotation Yrotation Zrotation
						JOINT LeftHand
						{
							OFFSET 9.88337 -0.00004 0.00000
							CHANNELS 3 Xrotation Yrotation Zrotation
							JOINT LeftHandThumb
							{
								OFFSET 0.00000 0.00000 0.00000
								CHANNELS 3 Xrotation Yrotation Zrotation
								End Site
								{
									OFFSET 0.00000 0.00000 3.93700
								}
							}
							JOINT L_Wrist_End
							{
								OFFSET 3.93700 -0.00001 0.00000
								CHANNELS 3 Xrotation Yrotation Zrotation
							}
						}
					}
				}
			}
			JOINT RightShoulder
			{
				OFFSET 0.00000 8.48368 0.00000
				CHANNELS 3 Xrotation Yrotation Zrotation
				JOINT RightArm
				{
					OFFSET -7.74502 -0.00003 0.00000
					CHANNELS 3 Xrotation Yrotation Zrotation
					JOINT RightForeArm
					{
						OFFSET -12.49824 -0.00005 0.00000
						CHANNELS 3 Xrotation Yrotation Zrotation
						JOINT RightHand
						{
							OFFSET -9.88337 -0.00004 0.00000
							CHANNELS 3 Xrotation Yrotation Zrotation
							JOINT RightHandThumb
							{
								OFFSET 0.00000 0.00000 0.00000
								CHANNELS 3 Xrotation Yrotation Zrotation
								End Site
								{
									OFFSET 0.00000 0.00000 3.93700
								}
							}
							JOINT R_Wrist_End
							{
								OFFSET -5.39369 -0.00002 0.00000
								CHANNELS 3 Xrotation Yrotation Zrotation
							}
						}
					}
				}
			}
		}
	}
}
MOTION
Frames: 6
Frame Time: 0.066664
 4.3463 33.0906 -6.2587 10.7702 -7.6179 -9.8188 -34.2111 -0.2779 7.7782 49.8265 -0.0000 0.0000 -30.7168 4.8754 -4.8826 9.3121 -0.0000 0.0000 -48.9175 -3.9116 -3.2109 72.6349 -0.0000 0.0000 9.2985 -2.2787 31.3579 -5.1646 0.0000 -0.0000 0.8598 -1.8438 -1.6736 23.7360 -7.9551 -5.3251 -9.5307 10.2069 3.8850 19.9903 -7.8304 -1.7488 -4.9906 17.6217 28.1940 7.0076 -37.9948 -77.6142 -0.0003 -52.0510 -0.0001 3.3869 -32.1232 32.3531 -0.0000 -0.0000 0.0000 -0.0000 -0.0000 0.0000 19.1158 -17.8124 -12.7398 -34.9934 38.7871 96.6320 -0.0001 26.0580 0.0000 68.7123 -72.6607 -120.9124 -0.0000 0.0000 -0.0000 -0.0000 0.0000 -0.0000
 4.5375 34.3084 -5.4067 8.9890 -7.1205 -10.5334 -27.6649 5.3935 10.1276 40.9956 -0.0000 0.0000 -24.7899 -0.5428 -9.1846 5.7600 -0.0000 0.0000 -42.6535 -7.3925 -4.5469 66.1059 -0.0000 0.0000 9.9843 -2.2530 31.9179 -1.9623 0.0000 -0.0000 2.0512 -2.3394 -2.3141 21.0406 -7.2293 -3.3541 -10.5263 9.2298 3.8237 22.7093 -8.9678 -1.8429 -5.5547 17.2293 29.9132 16.9533 -49.3872 -71.7869 -0.0003 -55.6767 -0.0002 3.5903 -31.6851 28.9626 -0.0000 0.0000 -0.0000 -0.0000 0.0000 -0.0000 18.6279 -16.7784 -14.7149 -31.9843 41.9352 95.0884 -0.0001 26.0581 0.0000 69.3663 -72.1717 -119.7602 -0.0000 0.0000 -0.0000 -0.0000 0.0000 -0.0000
 4.5097 36.0907 -5.6830 14.1564 -2.6498 -12.6502 -36.1501 5.0386 11.8803 43.0735 -0.0000 0.0000 -10.1603 -0.1122 -18.4573 1.3031 0.0000 -0.0000 -42.5044 -13.6128 -4.8127 55.9982 -0.0000 0.0000 16.0782 -1.4601 32.0338 0.2353 -0.0000 0.0000 2.4743 -3.3518 -2.2651 19.4394 -6.7086 -0.1247 -12.2917 6.6919 3.9383 22.7938 -12.2051 -1.4537 -6.3408 16.2507 30.5795 23.0865 -57.8087 -63.7459 -0.0003 -58.5406 -0.0002 1.9411 -30.3474 22.4303 -0.0000 -0.0000 0.0000 -0.0000 -0.0000 0.0000 18.4054 -16.7525 -14.1941 -30.7209 41.9512 93.7611 -0.0001 25.8575 0.0000 70.9424 -70.9170 -116.9602 -0.0000 0.0000 -0.0000 -0.0000 0.0000 -0.0000
 4.4950 36.4347 -6.2813 19.0835 -1.0975 -13.8979 -43.1308 4.7408 12.7646 36.1206 -0.0000 0.0000 -9.7454 -2.5464 -19.5601 -3.9305 0.0000 -0.0000 -46.6626 -15.0570 -4.0610 53.1040 -0.0000 0.0000 23.1688 -1.8622 31.9026 -0.8771 0.0000 -0.0000 2.3219 -2.6338 -1.8616 20.3404 -5.8589 0.0523 -11.8056 5.3411 3.7300 21.7112 -14.1973 -0.7114 -6.8270 15.9369 31.0019 27.2385 -58.8952 -56.8439 -0.0005 -65.3512 -0.0003 2.9220 -27.6938 19.6401 -0.0000 -0.0000 0.0000 -0.0000 -0.0000 0.0000 18.6875 -16.9868 -13.3988 -31.2957 40.8236 92.2269 -0.0001 26.7111 0.0000 73.6285 -70.0232 -114.1551 -0.0000 0.0000 -0.0000 -0.0000 0.0000 -0.0000
 4.7628 34.9083 -6.4212 19.4558 -2.9985 -13.0115 -43.6807 3.6965 12.7148 36.9003 -0.0000 0.0000 -14.8832 -4.8084 -16.2131 8.9765 -0.0000 -0.0000 -50.7592 -12.1525 -4.3996 60.5254 -0.0000 0.0000 17.7685 -1.9996 32.5208 -9.6811 0.0000 0.0000 2.2478 -1.8941 -2.2738 22.4325 -5.6249 -0.9597 -10.4905 6.5732 3.0112 23.0881 -14.1627 -2.0887 -6.4634 18.8364 30.2753 30.2867 -56.3562 -53.9033 -0.0006 -71.6542 -0.0005 3.6354 -26.9829 19.0113 -0.0000 -0.0000 0.0000 -0.0000 -0.0000 0.0000 18.1164 -16.7410 -15.0794 -30.1020 39.1424 89.9862 -0.0001 29.6452 0.0000 76.5167 -70.1411 -114.8374 -0.0000 0.0000 -0.0000 -0.0000 0.0000 -0.0000
 4.8697 33.2630 -7.0124 20.6920 -3.9915 -11.5698 -51.4216 2.5702 11.0483 48.3963 -0.0000 0.0000 -22.7529 -1.4401 -12.9955 12.6344 -0.0000 -0.0000 -58.3335 -8.3928 -5.3088 70.1906 -0.0000 0.0000 12.7655 -2.6493 32.0854 -9.0143 -0.0000 -0.0000 2.2414 -1.2147 -3.3819 25.6668 -5.6021 -2.0949 -9.4612 6.7392 2.7674 20.1063 -13.7090 -2.0429 -6.8343 19.6385 30.4610 26.7662 -53.3957 -56.8239 -0.0006 -70.8415 -0.0004 4.0881 -27.3496 20.7928 -0.0000 -0.0000 0.0000 -0.0000 -0.0000 0.0000 18.8784 -17.2744 -14.8463 -30.9681 34.4658 89.3499 -0.0001 31.7068 0.0000 68.4533 -73.4127 -123.7400 -0.0000 0.0000 -0.0000 -0.0000 0.0000 -0.0000
